<svg width="117" height="29" viewBox="0 0 117 29" fill="none" xmlns="http://www.w3.org/2000/svg">
<path d="M45.5628 28.6209C49.1441 28.6209 53.4057 27.8986 56.806 26.0476V19.1857C52.8165 20.9012 50.187 21.1267 47.1043 21.1267C43.0239 21.1267 40.6665 19.5017 39.941 16.3867H31.6445C32.506 24.1969 38.3542 28.6209 45.5628 28.6209Z" fill="#FF5000"/>
<path d="M17.4999 0C13.7822 0 11.0621 1.58013 8.88608 3.65682C8.34198 1.80572 7.02731 0.631895 4.66969 0.631895H0V16.3874H9.24874V9.48023C10.6088 8.35191 12.2409 7.4941 14.0997 7.4941C16.4117 7.4941 17.908 8.62261 17.908 11.557V27.9896H27.202V10.7894C27.202 3.83729 23.3484 0 17.4999 0Z" fill="#4A4F55"/>
<path d="M0 27.9888H9.24884V16.3867H0V27.9888Z" fill="#FF5000"/>
<path d="M107.809 20.2691V24.9191V27.9888H116.196V16.3867H107.809V20.2691Z" fill="#FF5000"/>
<path d="M104 0C99.3757 0 95.7941 0.947986 92.394 2.39276V9.25482C95.7488 7.71967 98.6958 7.26828 101.733 7.26828C105.723 7.26828 107.627 8.44212 107.808 11.2861H101.824C94.9329 11.2861 90.5352 14.4013 90.5352 19.5929C90.5352 24.9649 94.3434 28.3958 99.5118 28.3958C103.184 28.3958 105.768 26.7708 107.808 24.9198V20.2698C105.405 21.6243 102.957 21.9401 101.824 21.9401C99.693 21.9401 98.5142 20.9472 98.5142 19.1413C98.5142 17.6966 99.7837 16.3874 102.821 16.3874H107.808H116.195V12.189C116.195 4.966 112.07 0 104 0Z" fill="#4A4F55"/>
<path d="M89.5843 0.632812H79.3382L74.7595 7.63018L72.6286 4.47011C70.9965 2.03223 69.863 0.632812 66.5533 0.632812H58.8008L68.91 13.952L71.2593 17.0475L79.565 27.9905H90.5364L79.8821 13.8602L89.5843 0.632812Z" fill="#4A4F55"/>
<path d="M58.3008 27.9896H68.7734L73.9427 20.5842L71.2579 17.0467L68.9086 13.9512L58.3008 27.9896Z" fill="#FF5000"/>
<path d="M39.9859 11.1507C40.5298 7.67457 42.8874 6.68148 45.1995 6.68148C47.6477 6.68148 49.2345 8.17105 49.4158 11.1507H39.9859ZM45.1089 0C37.9003 0 31.5078 5.14647 31.5078 14.3558C31.5078 15.0331 31.5531 15.7103 31.6441 16.3874H39.9405H57.7124V14.6267C57.7124 4.42407 52.1359 0 45.1089 0Z" fill="#4A4F55"/>
</svg>
